<svg xmlns="http://www.w3.org/2000/svg" version="1.1">
<path d="M587.1041,96.15383
L587.1041,96.15383
L591.629,98.41627
L598.4164,100.6787
" stroke="#FFFF00" fill="none" stroke-width="16.14412" />
<path d="M419.6833,18.09952
L419.6833,18.09952
L425.3394,18.09952
L434.3891,24.88685
L441.1765,29.41173
L449.0951,35.06786
L457.0136,40.72395
L467.1946,46.38007
L476.2444,52.03619
L489.8191,58.82349
L500.0001,63.34841
L510.1811,67.8733
L521.4933,72.39819
L532.8055,76.92307
L541.8553,81.44794
L549.7739,84.84161
L556.5612,87.10406
L561.0861,89.36653
L566.7421,91.62894
L571.267,93.8914
L575.792,96.15383
L581.4481,96.15383
L587.1041,96.15383
" stroke="#FFFF00" fill="none" stroke-width="16.14412" />
<path d="M536.1992,54.29864
L536.1992,54.29864
L545.249,48.64254
L552.0363,45.24887
L559.9548,41.85519
L571.267,37.33033
L580.3168,32.80542
L591.629,28.28052
L600.6788,23.75565
L607.4661,20.362
L613.1223,18.09952
L618.7784,13.57462
" stroke="#FFFF00" fill="none" stroke-width="16.14412" />
<path d="M398.1901,109.7285
L398.1901,109.7285
L403.8462,108.5973
L412.896,104.0724
L419.6833,100.6787
L429.8643,97.28506
L441.1765,92.76015
L454.7512,88.23528
L469.4571,83.71041
L480.7693,79.18551
L492.0815,74.66064
L504.525,70.13571
L514.7059,65.61086
L523.7557,59.95476
L531.6743,56.56109
L540.7241,49.77375
" stroke="#FFFF00" fill="none" stroke-width="16.14412" />
<path d="M580.3168,339.3665
L580.3168,339.3665
L584.8417,342.7602
L590.4979,346.1539
L596.1539,351.81
L605.2037,357.4661
L611.991,361.991
L619.9095,361.991
L626.697,360.8597
L630.0906,355.2036
L631.2219,347.2851
L627.8281,339.3665
L624.4344,334.8416
L619.9095,330.3167
L615.3846,326.9231
L610.8599,323.5294
L606.3349,320.1357
L599.5476,313.3484
L597.2852,307.6923
L598.4164,302.0362
" stroke="#FF00FF" fill="none" stroke-width="16.14412" />
<path d="M542.9865,273.7556
L542.9865,273.7556
L539.5929,278.2805
L533.9367,283.9366
L527.1494,287.3303
L532.8055,290.724
L539.5929,291.8552
L547.5114,292.9864
L555.4299,292.9864
L562.2173,294.1176
L569.0046,296.3801
L566.7421,302.0362
L559.9548,306.5611
L555.4299,308.8235
L549.7739,314.4796
L546.3802,319.0045
L547.5114,325.7919
L554.2987,331.448
L562.2173,337.1041
L566.7421,341.629
L567.8734,349.5475
L565.611,357.4661
L559.9548,365.3846
L553.1675,369.9095
L545.249,371.0407
L537.3304,371.0407
L531.6743,367.6471
L528.2806,359.7285
L528.2806,350.6787
L529.4119,345.0226
L531.6743,339.3665
" stroke="#FF00FF" fill="none" stroke-width="16.14412" />
<path d="M428.7331,357.4661
L428.7331,357.4661
L424.2082,359.7285
L419.6833,354.0724
L417.4209,346.1539
L417.4209,337.1041
L419.6833,329.1855
L426.4706,323.5294
L433.258,322.3982
L441.1765,322.3982
L445.7014,324.6606
L451.3575,331.448
L453.62,338.2353
L459.2761,337.1041
L466.0634,330.3167
L471.7195,328.0543
L477.3756,326.9231
L484.163,326.9231
L490.9503,326.9231
L500.0001,329.1855
L505.6562,335.9728
L507.9186,340.4977
L507.9186,349.5475
L503.3937,357.4661
L495.4752,360.8597
" stroke="#FF00FF" fill="none" stroke-width="16.14412" />
<path d="M351.81,342.7602
L351.81,342.7602
L354.0724,338.2353
L360.8598,332.5792
L368.7784,330.3167
L374.4344,330.3167
L385.7466,331.448
L391.4028,334.8416
L395.9276,338.2353
L400.4525,342.7602
L402.715,347.2851
L404.9775,352.9412
L406.1086,358.5973
L407.2399,365.3846
L407.2399,372.1719
L404.9775,380.0905
L402.715,386.8778
L399.3213,393.6652
L394.7964,399.3213
L389.1403,403.8462
L383.4842,406.1086
L376.6969,408.3711
L371.0408,408.3711
L365.3846,408.3711
L359.7285,408.3711
" stroke="#FF00FF" fill="none" stroke-width="16.14412" />
<path d="M308.8235,398.19
L308.8235,398.19
L314.4797,403.8462
L311.086,398.19
L307.6923,393.6652
L304.2987,388.009
L300.905,382.3529
L298.6425,374.4344
L296.3801,367.6471
L295.2489,359.7285
L295.2489,351.81
L295.2489,345.0226
L296.3801,338.2353
L299.7738,332.5792
L303.1674,328.0543
L307.6923,325.7919
L315.6109,331.448
L320.1358,337.1041
L325.7919,342.7602
L331.448,348.4163
L335.9729,354.0724
L342.7602,360.8597
L345.0226,365.3846
" stroke="#FF00FF" fill="none" stroke-width="16.14412" />
<path d="M212.6697,316.7421
L212.6697,316.7421
L211.5385,322.3982
L211.5385,330.3167
L211.5385,335.9728
L212.6697,346.1539
L214.9322,351.81
L219.457,356.3348
L223.9819,359.7285
L229.638,361.991
L238.6878,364.2534
L247.7376,363.1222
L252.2625,360.8597
L259.0498,356.3348
L262.4435,350.6787
L257.9185,357.4661
L255.6561,368.7783
L254.5249,374.4344
L252.2625,381.2217
L251.1313,389.1403
L248.8688,395.9276
L246.6064,402.7149
L243.2127,408.3711
L239.819,412.896
L231.9005,418.552
L226.2444,419.6833
L220.5883,419.6833
L214.9322,419.6833
L204.7512,419.6833
L199.095,417.4208
" stroke="#FF00FF" fill="none" stroke-width="16.14412" />
<path d="M328.0543,180.9955
L328.0543,180.9955
L330.3168,185.5204
L332.5792,195.7013
L333.7104,201.3575
L334.8416,208.1448
L334.8416,216.0634
L334.8416,223.9819
L334.8416,231.9005
L334.8416,240.9502
L334.8416,250
L333.7104,257.9185
L332.5792,265.8371
L332.5792,272.6245
L333.7104,281.6742
L339.3665,287.3303
L348.4164,289.5927
L358.5974,289.5927
L363.1222,287.3303
L367.6471,283.9366
L372.172,279.4118
L375.5656,274.8869
L378.9594,268.0995
L380.0905,262.4434
" stroke="#0000FF" fill="none" stroke-width="16.14412" />
<path d="M268.0995,274.8869
L268.0995,274.8869
L268.0995,268.0995
L268.0995,259.0498
L268.0995,248.8688
L268.0995,243.2127
L269.2308,237.5565
L271.4933,233.0317
L274.8869,228.5068
L280.543,222.8507
L286.1991,221.7195
L290.724,226.2444
L294.1177,230.7692
L297.5114,237.5565
L300.905,246.6063
L302.0362,254.5249
L303.1674,263.5746
L303.1674,270.362
L303.1674,277.1493
L302.0362,282.8055
" stroke="#0000FF" fill="none" stroke-width="16.14412" />
<path d="M173.077,176.4706
L173.077,176.4706
L173.077,182.1267
L176.4706,193.4389
L177.6018,201.3575
L180.9955,209.276
L183.2579,218.3258
L185.5204,228.5068
L187.7828,238.6878
L190.0453,247.7375
L190.0453,256.7873
L191.1765,264.7059
L191.1765,272.6245
L191.1765,279.4118
L188.914,287.3303
L186.6516,279.4118
L188.914,272.6245
L191.1765,265.8371
L195.7014,259.0498
L200.2263,252.2625
L205.8824,247.7375
L211.5385,243.2127
L217.1945,238.6878
L222.8507,236.4253
L229.638,235.2941
L234.1629,238.6878
L236.4254,244.3439
L237.5566,250
L238.6878,256.7873
L239.819,263.5746
L240.9503,269.2308
L242.0815,274.8869
L243.2127,280.543
" stroke="#0000FF" fill="none" stroke-width="16.14412" />
<path d="M52.03621,271.4932
L52.03621,271.4932
L52.03621,279.4118
L53.16746,285.0679
L55.42989,290.724
L61.08596,296.3801
L65.61086,298.6425
L71.26698,299.7737
L79.18553,300.905
L87.10408,300.905
L97.28506,300.905
L106.3349,298.6425
L114.2534,296.3801
L121.0407,294.1176
L127.828,290.724
L132.353,287.3303
L135.7466,281.6742
L135.7466,276.0181
L132.353,268.0995
L128.9593,263.5746
L125.5656,259.0498
L121.0407,253.3937
L115.3846,248.8688
L110.8597,243.2127
L105.2036,237.5565
L100.6787,231.9005
L96.15385,227.3755
L92.76021,222.8507
L89.36653,217.1945
" stroke="#0000FF" fill="none" stroke-width="16.14412" />
<path d="M494.344,5.656099
L494.344,5.656099
L496.6064,11.31222
L500.0001,22.62443
L502.2625,29.41173
L504.525,37.33033
L505.6562,46.38007
L507.9186,55.42984
L509.0499,63.34841
L510.1811,72.39819
L510.1811,80.31672
L511.3123,87.10406
L511.3123,96.15383
L511.3123,87.10406
L511.3123,80.31672
L512.4435,74.66064
L514.7059,69.00451
L520.3621,61.08596
L528.2806,54.29864
L533.9367,53.1674
L542.9865,50.90496
L548.6426,50.90496
L555.4299,53.1674
L561.0861,58.82349
L563.3485,66.74207
L564.4797,75.79184
L564.4797,81.44794
L564.4797,87.10406
L563.3485,95.02262
L563.3485,101.81
" stroke="#00FF00" fill="none" stroke-width="16.14412" />
<path d="M428.7331,88.23528
L428.7331,88.23528
L432.1267,92.76015
L436.6516,95.02262
L442.3077,96.15383
L449.0951,96.15383
L457.0136,96.15383
L464.9322,95.02262
L469.4571,92.76015
L477.3756,89.36653
L483.0317,85.97285
L485.2942,81.44794
L483.0317,75.79184
L477.3756,70.13571
L469.4571,63.34841
L464.9322,59.95476
L458.1449,53.1674
L452.4887,47.51128
L451.3575,40.72395
L451.3575,35.06786
" stroke="#00FF00" fill="none" stroke-width="16.14412" />
<path d="M231.9005,53.1674
L231.9005,53.1674
L229.638,47.51128
L229.638,40.72395
L229.638,35.06786
L233.0317,30.54297
L239.819,27.14932
L244.3439,24.88685
L251.1313,21.4932
L256.7874,19.23075
L262.4435,16.96831
L266.9684,14.70587
L273.7557,11.31222
L277.1494,15.8371
L278.2806,22.62443
L278.2806,28.28052
L278.2806,33.93665
L278.2806,40.72395
L283.9367,37.33033
L290.724,33.93665
L297.5114,31.67421
L305.4299,30.54297
L311.086,29.41173
L316.7421,30.54297
L317.8733,37.33033
L319.0045,45.24887
L320.1358,52.03619
L321.267,57.69229
L321.267,66.74207
L321.267,72.39819
L321.267,80.31672
L321.267,90.49773
L320.1358,96.15383
L317.8733,105.2036
L315.6109,109.7285
L313.3484,115.3846
L311.086,121.0407
L308.8235,125.5656
L305.4299,131.2217
L297.5114,139.1402
L292.9865,142.5339
L288.4616,144.7964
L277.1494,147.0588
L269.2308,147.0588
L261.3123,148.19
L251.1313,148.19
L243.2127,147.0588
L236.4254,144.7964
L230.7693,139.1402
L228.5068,132.3529
" stroke="#FF0000" fill="none" stroke-width="16.14412" />
<path d="M150.4525,46.38007
L150.4525,46.38007
L148.1901,41.85519
L145.9276,36.19907
L144.7964,30.54297
L144.7964,24.88685
L148.1901,20.362
L152.715,18.09952
L160.6335,13.57462
L169.6833,11.31222
L178.733,10.18097
L187.7828,9.049773
L193.4389,9.049773
L199.095,9.049773
L201.3575,13.57462
L203.62,18.09952
L203.62,23.75565
L204.7512,30.54297
L204.7512,37.33033
L204.7512,46.38007
L204.7512,54.29864
L203.62,59.95476
L202.4887,66.74207
L200.2263,73.52939
L195.7014,82.57919
L193.4389,87.10406
L190.0453,92.76015
L185.5204,99.54751
L176.4706,107.466
L171.9457,110.8597
L164.0272,115.3846
L156.1086,117.647
L150.4525,118.7783
L144.7964,118.7783
L139.1403,115.3846
" stroke="#FF0000" fill="none" stroke-width="16.14412" />
<path d="M0,78.05431
L0,78.05431
L6.787348,79.18551
L16.96832,82.57919
L22.62444,84.84161
L31.67422,88.23528
L44.11766,92.76015
L52.03621,96.15383
L56.56111,98.41627
L61.08596,101.81
L65.61086,107.466
L70.13576,114.2534
L74.66064,118.7783
L67.87331,113.1222
L61.08596,108.5973
L56.56111,105.2036
L49.77374,100.6787
L40.72399,93.8914
L31.67422,87.10406
L26.0181,82.57919
L16.96832,72.39819
L13.57465,62.21717
L12.44345,54.29864
L12.44345,48.64254
L12.44345,41.85519
L12.44345,35.06786
L12.44345,27.14932
L13.57465,21.4932
L15.8371,16.96831
L19.23077,12.44342
L23.75567,9.049773
L30.54299,9.049773
L37.33032,9.049773
L41.85522,12.44342
L45.24889,16.96831
L50.90496,24.88685
L54.29864,30.54297
L61.08596,38.46154
L63.34843,42.98642
L69.00453,49.77375
L74.66064,53.1674
L82.57919,55.42984
L87.10408,57.69229
L93.8914,57.69229
L101.81,57.69229
L108.5973,57.69229
L113.1222,55.42984
L117.6471,49.77375
L118.7783,44.11763
L116.5158,37.33033
L114.2534,31.67421
L110.8597,26.01812
L107.4661,20.362
L105.2036,15.8371
L100.6787,11.31222
L95.02263,6.7873
L90.49776,3.39365
L83.71041,1.131201
L78.05434,0
L72.39819,0
L66.74211,1.131201
L66.74211,9.049773
L67.87331,14.70587
" stroke="#FF0000" fill="none" stroke-width="16.14412" />
</svg>
