<svg xmlns="http://www.w3.org/2000/svg" version="1.1">
<path d="M466.0634,294.1176
L466.0634,294.1176
L472.8507,287.3303
L476.2444,279.4118
L480.7693,270.362
L485.2942,260.181
L489.8191,248.8688
L494.3439,237.5566
L497.7376,225.1131
L501.1313,213.8009
L505.6562,203.6199
L509.0499,194.5701
L512.4435,186.6516
L514.7059,179.8642
L516.9684,175.3393
L519.2308,170.8145
L520.3621,178.733
L520.3621,184.3891
L522.6245,192.3077
L524.887,202.4887
L528.2806,212.6697
L531.6743,223.9819
L536.1992,236.4253
L540.7241,246.6064
L545.249,255.6561
L548.6426,263.5747
L552.0363,269.2308
L556.5612,274.8869
L550.905,274.8869
L545.249,272.6245
L539.5929,268.0995
L532.8055,263.5747
L526.0181,259.0497
L518.0996,254.5249
L511.3123,250
L502.2625,245.4751
L492.0815,240.9502
L483.0317,236.4253
L473.982,233.0316
L463.801,227.3755
L469.4571,222.8507
L475.1132,221.7195
L480.7693,220.5883
L488.6879,219.457
L495.4752,218.3258
L512.4435,214.9321
L521.4932,212.6697
L529.4119,210.4073
L538.4616,207.0136
L546.3801,204.7511
L553.1675,202.4887
L558.8236,200.2263
L569.0045,197.9638
L563.3485,204.7511
L554.2987,211.5385
L548.6426,216.0633
L541.8552,221.7195
L533.9367,228.5068
L516.9684,245.4751
L509.0499,255.6561
L500.0001,265.8371
L492.0815,274.8869
L485.2942,281.6742
L479.6381,287.3303
L475.1132,290.724
" stroke="#FFFF00" fill="none" stroke-width="16.14412" />
<path d="M55.42986,296.3801
L55.42986,296.3801
L57.69229,300.905
L58.82351,306.5611
L52.03619,298.6425
L48.64254,292.9865
L45.24887,287.3303
L40.72397,279.4118
L38.46154,271.4932
L35.06789,263.5747
L33.93665,255.6561
L32.80542,247.7375
L32.80542,239.819
L32.80542,231.9005
L35.06789,225.1131
L38.46154,218.3258
L41.85519,211.5385
L46.38009,205.8824
L52.03619,202.4887
L56.56109,199.095
L63.34841,196.8326
L69.00451,196.8326
L71.26698,202.4887
L72.39819,208.1448
L72.39819,214.9321
L72.39819,221.7195
L72.39819,227.3755
L71.26698,233.0316
L72.39819,226.2444
L74.66064,221.7195
L81.44796,213.8009
L87.10407,210.4073
L92.76018,208.1448
L99.54751,205.8824
L105.2036,204.7511
L110.8597,203.6199
L116.5158,203.6199
L123.3032,204.7511
L127.8281,207.0136
L128.9593,213.8009
L127.8281,222.8507
L125.5656,228.5068
L123.3032,234.1629
L119.9095,240.9502
L116.5158,247.7375
L114.2534,253.3936
L110.8597,257.9185
L107.4661,262.4435
L102.9412,266.9684
L97.28506,271.4932
L89.36653,276.0181
L79.18552,280.543
L69.00451,285.0679
L57.69229,288.4615
L48.64254,291.8552
L41.85519,295.2489
" stroke="#FFFF00" fill="none" stroke-width="16.14412" />
<path d="M361.991,179.8642
L361.991,179.8642
L361.991,174.2081
L356.3349,168.552
L350.6787,167.4208
L341.629,168.552
L335.9729,170.8145
L330.3167,174.2081
L324.6606,178.733
L320.1357,184.3891
L315.6109,190.0452
L312.2172,195.7014
L309.9547,202.4887
L311.086,211.5385
L321.267,218.3258
L329.1855,219.457
L339.3665,219.457
L350.6787,218.3258
L361.991,214.9321
L372.1719,210.4073
L380.0905,205.8824
L385.7466,200.2263
L389.1403,195.7014
L391.4027,188.914
L388.0091,184.3891
L381.2217,183.2579
L374.4344,185.5204
L368.7783,193.4389
L367.6471,199.095
L367.6471,205.8824
L367.6471,212.6697
L367.6471,219.457
L368.7783,227.3755
L369.9095,235.2941
L371.0407,244.3439
L372.1719,253.3936
L374.4344,263.5747
L375.5656,273.7556
L376.6969,282.8055
L376.6969,289.5928
L374.4344,296.3801
L364.2534,297.5113
L356.3349,297.5113
L346.1539,296.3801
L333.7104,294.1176
" stroke="#FF0000" fill="none" stroke-width="16.14412" />
<path d="M230.7693,223.9819
L230.7693,223.9819
L237.5565,219.457
L242.0815,214.9321
L247.7375,210.4073
L253.3937,203.6199
L259.0498,196.8326
L263.5747,190.0452
L265.8371,184.3891
L268.0996,179.8642
L265.8371,175.3393
L261.3123,179.8642
L257.9186,185.5204
L255.6561,192.3077
L254.5249,201.3575
L253.3937,211.5385
L252.2625,221.7195
L252.2625,233.0316
L252.2625,245.4751
L253.3937,256.7874
L255.6561,265.8371
L256.7874,272.6245
L259.0498,278.2805
L262.4435,282.8055
L266.9683,285.0679
" stroke="#FF0000" fill="none" stroke-width="16.14412" />
<path d="M493.2127,29.41177
L493.2127,29.41177
L490.9503,23.75565
L485.2942,22.62444
L479.6381,22.62444
L470.5883,26.0181
L466.0634,28.28057
L461.5385,31.67418
L459.2761,36.19909
L457.0136,40.72399
L457.0136,48.64252
L461.5385,54.29864
L466.0634,56.56109
L473.982,57.69229
L483.0317,57.69229
L489.8191,54.29864
L494.3439,48.64252
L498.8688,42.98639
L502.2625,37.33031
L504.5249,32.80542
L501.1313,38.46152
L496.6064,46.38008
L494.3439,50.90499
L492.0815,61.08594
L490.9503,67.87331
L490.9503,74.66064
L492.0815,81.44796
L495.4752,88.2353
L498.8688,95.0226
L503.3937,99.54751
L507.9186,102.9412
" stroke="#FF0000" fill="none" stroke-width="16.14412" />
<path d="M385.7466,39.59278
L385.7466,39.59278
L390.2715,44.11764
L392.534,48.64252
L395.9276,56.56109
L400.4525,63.34841
L403.8462,69.00451
L401.5837,61.08594
L399.3213,54.29864
L399.3213,45.24887
L401.5837,39.59278
L403.8462,35.06787
L407.2399,30.54297
L411.7647,27.1493
L416.2896,23.75565
L420.8145,21.4932
L427.6019,19.23076
L433.258,18.09955
" stroke="#FF0000" fill="none" stroke-width="16.14412" />
<path d="M314.4796,66.74207
L314.4796,66.74207
L312.2172,71.26696
L307.6923,74.66064
L306.5611,69.00451
L304.2986,59.95474
L303.1674,54.29864
L303.1674,45.24887
L308.8235,37.33031
L313.3484,33.93666
L319.0045,32.80542
L325.7919,31.67418
L333.7104,30.54297
L340.4977,30.54297
L347.2851,30.54297
L352.9412,30.54297
L357.4661,32.80542
L361.991,37.33031
L363.1222,45.24887
L359.7285,54.29864
L356.3349,59.95474
L351.81,65.61086
L347.2851,70.13575
L342.7602,73.52943
L337.1041,76.92308
L332.5792,79.18552
L326.9231,81.44796
L324.6606,76.92308
L323.5294,66.74207
L323.5294,61.08594
" stroke="#FF0000" fill="none" stroke-width="16.14412" />
<path d="M277.1493,36.19909
L277.1493,36.19909
L271.4933,35.06787
L265.8371,35.06787
L259.0498,36.19909
L253.3937,36.19909
L246.6064,37.33031
L239.819,38.46152
L234.1629,39.59278
L228.5068,39.59278
" stroke="#FF0000" fill="none" stroke-width="16.14412" />
<path d="M268.0996,36.19909
L268.0996,36.19909
L273.7556,36.19909
L279.4118,36.19909
" stroke="#FF0000" fill="none" stroke-width="16.14412" />
<path d="M252.2625,0
L252.2625,0
L257.9186,5.656099
L259.0498,11.31222
L261.3123,16.96832
L262.4435,22.62444
L262.4435,28.28057
L262.4435,35.06787
L262.4435,40.72399
L261.3123,47.51131
L259.0498,53.16742
L256.7874,59.95474
L253.3937,66.74207
L252.2625,72.39816
L250,78.05428
L250,85.97285
L256.7874,90.49773
L263.5747,90.49773
L270.362,88.2353
L276.0181,83.71039
L278.2805,78.05428
L279.4118,72.39816
L277.1493,66.74207
L272.6245,63.34841
L268.0996,61.08594
L261.3123,57.69229
" stroke="#FF0000" fill="none" stroke-width="16.14412" />
<path d="M152.715,63.34841
L152.715,63.34841
L156.1086,67.87331
L160.6335,72.39816
L162.8959,79.18552
L162.8959,85.97285
L161.7647,91.62898
L162.8959,85.97285
L166.2896,75.79184
L168.552,70.13575
L173.0769,65.61086
L178.733,61.08594
L184.3891,56.56109
L191.1765,54.29864
L195.7014,52.0362
L201.3575,50.90499
L209.276,50.90499
L212.6697,55.42985
L214.9321,63.34841
L214.9321,73.52943
L214.9321,79.18552
L212.6697,87.10406
L208.1448,92.76018
" stroke="#FF0000" fill="none" stroke-width="16.14412" />
<path d="M113.1222,62.21721
L113.1222,62.21721
L108.5973,58.82354
L100.6788,56.56109
L91.62896,55.42985
L84.84161,56.56109
L79.18552,62.21721
L74.66064,69.00451
L71.26698,78.05428
L70.13573,83.71039
L73.52939,90.49773
L80.31675,93.89138
L89.36653,95.0226
L98.41629,92.76018
L104.0724,89.36651
L109.7285,85.97285
L115.3846,81.44796
L119.9095,76.92308
L124.4344,71.26696
L130.0905,63.34841
L130.0905,57.69229
L126.6968,64.47962
L126.6968,70.13575
L128.9593,75.79184
L131.2217,83.71039
L133.4841,90.49773
L135.7466,96.15385
L139.1403,102.9412
L143.6651,105.2036
" stroke="#FF0000" fill="none" stroke-width="16.14412" />
<path d="M12.44345,19.23076
L12.44345,19.23076
L12.44345,27.1493
L11.3122,32.80542
L10.18102,39.59278
L7.918525,47.51131
L5.656099,56.56109
L3.39365,65.61086
L2.262449,75.79184
L0,83.71039
L0,89.36651
L0,95.0226
L5.656099,92.76018
L11.3122,83.71039
L14.70587,78.05428
L18.09952,72.39816
L21.4932,66.74207
L26.0181,62.21721
L31.67419,58.82354
L38.46154,55.42985
L46.38009,53.16742
L53.16742,50.90499
L61.08599,48.64252
L67.87331,47.51131
L72.39819,45.24887
L76.92306,42.98639
L67.87331,44.11764
L63.34841,46.38008
L56.56109,48.64252
L49.77377,52.0362
L42.98639,54.29864
L36.19909,57.69229
L29.41175,61.08594
L23.75567,64.47962
L19.23075,66.74207
L15.8371,71.26696
L20.362,73.52943
L30.54297,75.79184
L39.59274,78.05428
L47.51131,80.31676
L53.16742,87.10406
L57.69229,95.0226
L59.95474,104.0724
L59.95474,109.7285
" stroke="#FF0000" fill="none" stroke-width="16.14412" />
</svg>
