<svg xmlns="http://www.w3.org/2000/svg" version="1.1">
<path d="M532.8055,265.8371
L532.8055,265.8371
L531.6743,260.181
L536.1992,257.9186
L538.4616,263.5747
L538.4616,270.362
L536.1992,276.0181
L530.543,274.8869
L527.1494,270.362
L524.887,265.8371
L527.1494,261.3123
L533.9368,261.3123
L539.5929,261.3123
L536.1992,265.8371
" stroke="#FF0000" fill="none" stroke-width="16.14412" />
<path d="M545.249,127.8281
L545.249,127.8281
L542.9865,133.4842
L542.9865,139.1403
L542.9865,145.9276
L542.9865,154.9774
L542.9865,164.0272
L544.1177,173.0769
L544.1177,183.2579
L544.1177,191.1765
L544.1177,199.095
L542.9865,205.8824
L541.8553,211.5385
L540.7241,217.1946
L538.4616,222.8507
L536.1992,228.5068
L535.0679,234.1629
L533.9368,239.819
" stroke="#FF0000" fill="none" stroke-width="16.14412" />
<path d="M471.7195,264.7059
L471.7195,264.7059
L467.1945,262.4435
L462.6697,256.7874
L460.4073,252.2625
L464.9322,248.8688
L470.5883,251.1313
L472.8508,255.6561
L468.3259,257.9186
L467.1945,252.2625
L473.982,253.3937
L478.5068,257.9186
L472.8508,259.0498
L463.8009,256.7874
L458.1449,255.6561
" stroke="#FF0000" fill="none" stroke-width="16.14412" />
<path d="M442.3078,164.0272
L442.3078,164.0272
L443.439,158.371
L446.8326,151.5837
L451.3575,147.0588
L460.4073,144.7964
L470.5883,144.7964
L479.6381,144.7964
L486.4254,149.3213
L490.9503,156.1086
L492.0815,161.7647
L493.2128,168.552
L493.2128,175.3394
L493.2128,184.3891
L492.0815,193.4389
L489.8191,203.6199
L486.4254,211.5385
L483.0317,219.457
L478.5068,225.1131
L473.982,229.638
L466.0634,234.1629
L461.5385,236.4254
" stroke="#FF0000" fill="none" stroke-width="16.14412" />
<path d="M371.0408,159.5023
L371.0408,159.5023
L375.5656,154.9774
L381.2218,152.715
L383.4842,145.9276
L388.0091,142.534
L392.534,140.2715
L398.1901,139.1403
L404.9774,140.2715
L409.5023,147.0588
L411.7648,157.2398
L412.896,164.0272
L412.896,171.9457
L414.0272,179.8643
L414.0272,187.7828
L414.0272,196.8326
L414.0272,205.8824
L414.0272,213.8009
L411.7648,221.7195
L409.5023,228.5068
L407.2399,233.0317
L400.4525,238.6878
L391.4028,238.6878
L386.8779,236.4254
L381.2218,230.7692
L381.2218,222.8507
L384.6154,213.8009
L391.4028,207.0136
L397.0589,204.7512
L401.5838,202.4887
L407.2399,200.2263
L411.7648,197.9638
L418.5521,196.8326
" stroke="#FF0000" fill="none" stroke-width="16.14412" />
<path d="M287.3304,219.457
L287.3304,219.457
L287.3304,213.8009
L287.3304,207.0136
L289.5928,201.3575
L296.3801,197.9638
L306.5611,196.8326
L316.7421,196.8326
L324.6606,199.095
L332.5792,205.8824
L335.9729,210.4073
L339.3665,217.1946
L340.4978,222.8507
L341.629,229.638
L341.629,237.5566
L341.629,244.3439
L339.3665,251.1313
L335.9729,257.9186
L332.5792,262.4435
L324.6606,268.0996
L316.7421,270.362
L307.6924,270.362
L302.0362,270.362
" stroke="#FF0000" fill="none" stroke-width="16.14412" />
<path d="M239.819,216.0634
L239.819,216.0634
L240.9503,209.276
L243.2127,203.6199
L246.6064,199.095
L252.2625,196.8326
L259.0498,195.7014
L263.5747,200.2263
L266.9684,208.1448
L269.2308,213.8009
L270.362,219.457
L272.6245,226.2444
L274.8869,234.1629
L276.0181,240.9503
L277.1494,247.7375
L277.1494,253.3937
L274.8869,261.3123
L266.9684,268.0996
L261.3123,269.2308
L254.5249,270.362
L244.3439,270.362
L234.1629,270.362
L225.1132,268.0996
" stroke="#FF0000" fill="none" stroke-width="16.14412" />
<path d="M205.8824,265.8371
L205.8824,265.8371
L209.276,261.3123
L213.8009,257.9186
L217.1946,252.2625
L217.1946,246.6064
L217.1946,240.9503
L213.8009,235.2942
L211.5385,230.7692
L208.1449,226.2444
L210.4073,221.7195
L214.9322,218.3258
L218.3259,213.8009
L221.7195,209.276
L221.7195,202.4887
L218.3259,196.8326
L212.6697,193.4389
L207.0136,188.914
" stroke="#FF0000" fill="none" stroke-width="16.14412" />
<path d="M150.4525,184.3891
L150.4525,184.3891
L149.3213,177.6018
L149.3213,169.6833
L156.1086,165.1584
L164.0272,162.8959
L173.0769,162.8959
L177.6019,165.1584
L179.8643,171.9457
L180.9955,177.6018
L180.9955,183.2579
L180.9955,190.0453
L180.9955,196.8326
L179.8643,202.4887
L177.6019,208.1448
L176.4706,214.9321
L174.2082,220.5883
L171.9457,226.2444
L169.6833,230.7692
L166.2896,235.2942
L158.3711,234.1629
L151.5837,228.5068
L147.0588,222.8507
L148.1901,216.0634
L154.9774,212.6697
L159.5023,210.4073
L168.5521,208.1448
L174.2082,205.8824
" stroke="#FF0000" fill="none" stroke-width="16.14412" />
<path d="M175.3394,197.9638
L175.3394,197.9638
L178.7331,202.4887
L180.9955,209.276
L182.1267,219.457
L182.1267,225.1131
L182.1267,231.9005
L180.9955,239.819
L179.8643,246.6064
L178.7331,254.5249
L178.7331,262.4435
L179.8643,268.0996
L182.1267,272.6245
L186.6516,276.0181
L193.4389,277.1494
L201.3575,276.0181
L205.8824,272.6245
L207.0136,266.9684
" stroke="#FF0000" fill="none" stroke-width="16.14412" />
<path d="M24.88687,190.0453
L24.88687,190.0453
L18.09955,186.6516
L15.83712,182.1267
L16.96835,175.3394
L23.75567,170.8145
L28.28054,168.552
L33.93667,168.552
L41.85522,168.552
L47.51131,170.8145
L53.16744,178.7331
L56.56111,188.914
L57.69231,194.5702
L57.69231,202.4887
L58.82354,210.4073
L58.82354,218.3258
L58.82354,226.2444
L57.69231,234.1629
L55.42989,240.9503
L53.16744,247.7375
L49.77377,252.2625
L44.11766,257.9186
L39.59277,260.181
L35.06789,252.2625
L33.93667,246.6064
L33.93667,240.9503
L33.93667,235.2942
L37.33032,226.2444
L45.24889,220.5883
L53.16744,219.457
L59.95476,219.457
L66.74211,222.8507
L70.13576,227.3756
L72.39819,233.0317
L72.39819,238.6878
L73.52941,233.0317
L75.79191,225.1131
L79.18555,218.3258
L84.84163,214.9321
L91.62898,213.8009
L98.41631,214.9321
L102.9412,221.7195
L104.0724,227.3756
L104.0724,233.0317
L106.3349,227.3756
L110.8597,219.457
L114.2534,214.9321
L118.7783,211.5385
L123.3032,209.276
L132.353,208.1448
L139.1403,210.4073
L143.6652,214.9321
L144.7964,221.7195
L147.0588,228.5068
" stroke="#FF0000" fill="none" stroke-width="16.14412" />
<path d="M372.172,72.39819
L372.172,72.39819
L372.172,78.05428
L371.0408,83.71041
L366.5159,80.31676
L364.2534,73.52943
L364.2534,65.61086
L366.5159,61.08598
L374.4344,56.56111
L382.3529,55.42985
L391.4028,56.56111
L398.1901,62.21721
L401.5838,69.00453
L401.5838,74.66064
L407.2399,69.00453
L412.896,61.08598
L417.4209,57.69233
L424.2083,53.16744
L429.8643,53.16744
L434.3891,61.08598
L436.6516,70.13575
L436.6516,78.05428
L435.5204,84.84164
" stroke="#000000" fill="none" stroke-width="16.14412" />
<path d="M322.3982,52.0362
L322.3982,52.0362
L324.6606,56.56111
L326.9231,64.47966
L328.0543,71.26698
L326.9231,76.92308
L320.1358,80.31676
L314.4797,81.44796
L319.0046,83.71041
L328.0543,84.84164
L334.8417,88.2353
L339.3665,91.62898
L340.4978,98.41631
L338.2354,106.3348
L334.8417,110.8597
L330.3168,114.2534
L325.7919,118.7783
L321.267,122.172
L315.6109,125.5656
L309.9548,127.8281
L304.2987,128.9593
L296.3801,130.0905
L294.1177,125.5656
" stroke="#000000" fill="none" stroke-width="16.14412" />
<path d="M253.3937,69.00453
L253.3937,69.00453
L255.6561,62.21721
L259.0498,56.56111
L264.7059,50.90499
L271.4933,47.51131
L279.4118,47.51131
L286.1991,49.77377
L289.5928,55.42985
L290.724,63.34841
L289.5928,72.39819
L283.9367,78.05428
" stroke="#000000" fill="none" stroke-width="16.14412" />
<path d="M173.0769,13.57467
L173.0769,13.57467
L176.4706,9.049773
L178.7331,13.57467
L180.9955,18.09955
L182.1267,23.75567
L184.3892,29.41177
L187.7828,37.33031
L190.0453,45.2489
L192.3077,54.29864
L193.4389,62.21721
L194.5702,67.87334
L194.5702,73.52943
L194.5702,79.18555
L196.8326,73.52943
L204.7512,66.74207
L210.4073,63.34841
L216.0634,59.95476
L220.5883,57.69233
L226.2444,55.42985
L234.1629,55.42985
L236.4254,59.95476
L236.4254,69.00453
L236.4254,75.79187
" stroke="#000000" fill="none" stroke-width="16.14412" />
<path d="M114.2534,9.049773
L114.2534,9.049773
L117.6471,4.524899
L123.3032,0
L128.9593,0
L135.7466,4.524899
L142.534,10.181
L147.0588,16.96835
L149.3213,21.4932
L151.5837,30.543
L152.715,39.59278
L152.715,45.2489
L152.715,54.29864
L149.3213,61.08598
L144.7964,65.61086
L139.1403,67.87334
L133.4842,67.87334
L128.9593,64.47966
L126.6969,59.95476
L127.8281,52.0362
L134.6154,46.38012
L141.4027,41.85522
L148.1901,38.46154
L153.8462,37.33031
" stroke="#000000" fill="none" stroke-width="16.14412" />
<path d="M76.92308,55.42985
L76.92308,55.42985
L81.44798,58.82354
L87.10408,62.21721
L95.02263,62.21721
L99.54753,55.42985
L99.54753,49.77377
L98.41631,42.98643
L95.02263,36.19909
L92.76021,30.543
L90.49776,26.0181
L90.49776,19.23079
" stroke="#000000" fill="none" stroke-width="16.14412" />
<path d="M28.28054,52.0362
L28.28054,52.0362
L31.67424,47.51131
L33.93667,41.85522
L33.93667,35.06789
L30.54302,28.28057
L23.75567,23.75567
L16.96835,21.4932
L10.181,21.4932
L4.524899,26.0181
L0,32.80542
L0,42.98643
L2.262473,53.16744
L5.656123,57.69233
L10.181,61.08598
L14.70587,63.34841
L20.36202,64.47966
L28.28054,64.47966
L35.06789,58.82354
L38.46154,50.90499
L39.59277,44.11764
L41.85522,37.33031
L45.24889,32.80542
L52.03621,32.80542
L57.69231,32.80542
L57.69231,38.46154
L55.42989,47.51131
L53.16744,52.0362
L52.03621,61.08598
L52.03621,66.74207
" stroke="#000000" fill="none" stroke-width="16.14412" />
</svg>
