<svg xmlns="http://www.w3.org/2000/svg" version="1.1">
<path d="M601.8101,84.84164
L601.8101,84.84164
L604.0724,78.05431
L607.4661,72.39819
L614.2535,69.00453
L619.9095,67.8733
L625.5656,67.8733
L632.353,67.8733
L639.1404,69.00453
L645.9277,71.26698
L651.5837,74.66063
L656.1086,78.05431
L659.5024,83.71043
L661.7647,89.36652
L661.7647,96.15385
L661.7647,104.0724
L660.6335,110.8597
L657.2399,118.7783
L652.715,125.5656
L644.7964,133.4842
L639.1404,138.009
L633.4842,140.2715
L626.6969,142.5339
L618.7784,143.6652
L610.8598,143.6652
L605.2037,143.6652
L597.2852,140.2715
" stroke="#FF0000" fill="none" stroke-width="16.14412" />
<path d="M539.5928,45.24887
L539.5928,45.24887
L538.4616,39.59278
L532.8055,33.93666
L528.2806,28.28056
L527.1494,22.62443
L532.8055,18.09955
L538.4616,15.83711
L545.249,13.57468
L554.2987,12.44342
L562.2172,10.18101
L570.1359,10.18101
L576.9232,10.18101
L576.9232,16.96833
L571.267,21.49323
L564.4797,27.14932
L556.5612,33.93666
L549.7739,40.72398
L544.1177,47.51134
L538.4616,55.42987
L535.0679,63.34841
L532.8055,70.13574
L532.8055,78.05431
L532.8055,84.84164
L535.0679,90.49773
L540.7241,97.28506
L547.5114,101.81
L555.4299,106.3349
L563.3485,109.7285
L571.267,110.8597
L578.0544,110.8597
L583.7104,110.8597
L588.2354,106.3349
L587.1041,96.15385
L583.7104,89.36652
L576.9232,82.57919
L570.1359,75.79186
L563.3485,70.13574
L556.5612,66.7421
L552.0363,63.34841
" stroke="#FF0000" fill="none" stroke-width="16.14412" />
<path d="M455.8824,69.00453
L455.8824,69.00453
L458.1449,62.2172
L460.4073,57.69229
L466.0634,55.42987
L475.1132,54.29868
L484.163,55.42987
L488.6879,58.82355
L495.4752,66.7421
L498.8688,73.52942
L500.0001,80.31675
L501.1313,88.23532
L501.1313,97.28506
L501.1313,106.3349
L501.1313,115.3846
L500.0001,123.3032
L497.7376,130.0905
L494.344,134.6154
L490.9503,139.1403
L486.4254,141.4027
L480.7693,143.6652
L473.982,144.7964
L467.1946,144.7964
" stroke="#FF0000" fill="none" stroke-width="16.14412" />
<path d="M406.1086,107.4661
L406.1086,107.4661
L410.6335,110.8597
L415.1584,117.6471
L419.6833,124.4344
L421.9457,128.9593
L424.2082,136.8778
L425.3394,142.5339
L419.6833,135.7466
L415.1584,128.9593
L410.6335,119.9095
L406.1086,110.8597
L401.5837,100.6787
L398.1901,90.49773
L394.7964,81.44796
L394.7964,73.52942
L394.7964,66.7421
L398.1901,56.56108
L401.5837,52.0362
L408.3711,46.38008
L417.4209,44.11765
L424.2082,46.38008
L429.8643,54.29868
L432.1267,59.95476
L433.258,65.61089
L434.3892,72.39819
L434.3892,81.44796
" stroke="#FF0000" fill="none" stroke-width="16.14412" />
<path d="M313.3484,36.19913
L313.3484,36.19913
L315.6109,40.72398
L319.0045,46.38008
L322.3982,50.90499
L328.0543,56.56108
L333.7104,59.95476
L340.4977,61.08598
L346.1539,61.08598
L350.6787,55.42987
L350.6787,49.77375
L350.6787,44.11765
L350.6787,52.0362
L349.5475,63.34841
L350.6787,71.26698
L351.81,79.18552
L352.9412,88.23532
L355.2036,98.4163
L357.4661,108.5973
L360.8597,117.6471
L361.991,125.5656
L364.2534,132.353
L364.2534,138.009
L364.2534,143.6652
L361.991,151.5837
L356.3349,156.1086
L347.2851,157.2398
L341.629,157.2398
L335.9729,154.9774
L329.1855,152.715
" stroke="#FF0000" fill="none" stroke-width="16.14412" />
<path d="M199.095,76.9231
L199.095,76.9231
L201.3575,72.39819
L203.6199,66.7421
L208.1448,59.95476
L214.9321,57.69229
L222.8507,59.95476
L227.3756,63.34841
L234.1629,70.13574
L236.4254,74.66063
L237.5565,80.31675
L238.6878,85.97285
L238.6878,91.62897
L238.6878,97.28506
L236.4254,101.81
" stroke="#FF00FF" fill="none" stroke-width="16.14412" />
<path d="M135.7466,72.39819
L135.7466,72.39819
L131.2217,76.9231
L128.9593,81.44796
L126.6968,85.97285
L125.5656,91.62897
L124.4344,97.28506
L124.4344,102.9412
L124.4344,109.7285
L125.5656,116.5159
L127.8281,122.172
L131.2217,127.8281
L139.1403,134.6154
L143.6652,138.009
L152.715,139.1403
L161.7647,139.1403
L167.4208,132.353
L168.552,123.3032
L168.552,117.6471
L166.2896,113.1222
L161.7647,107.4661
L154.9774,100.6787
L150.4525,95.02265
L151.5837,89.36652
L160.6335,88.23532
L168.552,84.84164
L173.077,79.18552
L171.9457,73.52942
L169.6833,69.00453
L164.0271,62.2172
L160.6335,56.56108
L161.7647,50.90499
" stroke="#FF00FF" fill="none" stroke-width="16.14412" />
<path d="M2.262425,31.67421
L2.262425,31.67421
L1.131201,26.01811
L0,19.23078
L0,11.31221
L1.131201,5.656087
L5.656123,1.131213
L13.57465,0
L20.362,0
L26.01812,4.524887
L30.54299,7.918561
L33.93665,12.44342
L36.19909,16.96833
L39.59277,22.62443
L40.72401,28.28056
L41.85519,35.06786
L42.98644,40.72398
L42.98644,48.64255
L42.98644,55.42987
L40.72401,61.08598
L37.33029,67.8733
L33.93665,73.52942
L30.54299,78.05431
L26.01812,83.71043
L21.49322,85.97285
L16.96832,82.57919
L14.70587,74.66063
L14.70587,66.7421
L18.09955,61.08598
L24.88687,56.56108
L30.54299,55.42987
L36.19909,55.42987
L42.98644,55.42987
L49.77374,57.69229
L55.42986,59.95476
L61.08596,62.2172
L61.08596,67.8733
L64.47964,62.2172
L69.00453,57.69229
L75.79186,55.42987
L81.44796,55.42987
L87.10408,56.56108
L91.62898,62.2172
L95.02263,71.26698
L97.28508,75.79186
L98.41631,82.57919
L99.54751,89.36652
L100.6787,97.28506
L101.81,104.0724
L101.81,110.8597
L99.54751,116.5159
L97.28508,122.172
L90.49773,130.0905
L85.97285,132.353
L78.05431,136.8778
L72.39819,136.8778
" stroke="#FF00FF" fill="none" stroke-width="16.14412" />
</svg>
