<svg xmlns="http://www.w3.org/2000/svg" version="1.1">
<path d="M561.0861,323.5294
L561.0861,323.5294
L563.3485,319.0045
L567.8734,322.3982
L575.792,328.0543
L580.3168,332.5792
L584.8417,337.1041
L588.2354,342.7602
L591.629,348.4163
L593.8915,355.2036
L593.8915,361.991
L593.8915,369.9095
L592.7603,378.9593
L589.3666,386.8778
L585.9729,393.6652
L580.3168,399.3213
L575.792,402.7149
L571.267,406.1086
" stroke="#000000" fill="none" stroke-width="16.14412" />
<path d="M520.3621,361.991
L520.3621,361.991
L515.8372,366.5158
L511.3123,374.4344
L509.0498,378.9593
L506.7874,384.6154
L504.525,390.2715
L503.3937,395.9276
L504.525,404.9774
L510.1811,411.7647
L519.2308,414.0272
L524.887,415.1584
L531.6743,415.1584
L538.4616,412.896
L545.249,410.6335
L549.7739,407.2398
L554.2987,403.8462
L555.4299,398.19
L550.905,391.4027
L542.9865,389.1403
L536.1992,389.1403
L540.7241,386.8778
L545.249,384.6154
L549.7739,382.3529
L555.4299,377.8281
L554.2987,371.0407
L547.5114,366.5158
L542.9865,364.2534
L535.0679,360.8597
" stroke="#000000" fill="none" stroke-width="16.14412" />
<path d="M447.9638,373.3032
L447.9638,373.3032
L453.62,371.0407
L458.1448,365.3846
L466.0634,358.5973
L471.7195,356.3349
L477.3756,356.3349
L485.2942,356.3349
L487.5566,360.8597
L487.5566,367.6471
L484.163,375.5656
L479.6381,382.3529
" stroke="#000000" fill="none" stroke-width="16.14412" />
<path d="M404.9775,359.7285
L404.9775,359.7285
L407.2399,365.3846
L408.3711,371.0407
L408.3711,378.9593
L406.1086,388.0091
L404.9775,397.0588
L408.3711,403.8462
L416.2896,408.3711
L425.3394,410.6335
L434.3891,410.6335
L442.3077,409.5023
L445.7014,403.8462
L445.7014,394.7964
L443.439,390.2715
L438.9141,384.6154
L434.3891,378.9593
L429.8643,373.3032
L426.4706,368.7783
L421.9457,361.991
L420.8145,355.2036
L426.4706,354.0724
L437.7828,352.9412
L443.439,352.9412
L449.0951,352.9412
L455.8824,354.0724
L450.2263,358.5973
L444.5702,360.8597
L436.6516,363.1222
L427.6019,365.3846
L419.6833,367.6471
L412.896,369.9095
L407.2399,371.0407
" stroke="#000000" fill="none" stroke-width="16.14412" />
<path d="M363.1222,320.1358
L363.1222,320.1358
L367.6471,325.7919
L371.0407,333.7104
L373.3032,338.2353
L374.4344,346.1539
L374.4344,354.0724
L369.9095,361.991
L367.6471,366.5158
L365.3846,371.0407
L363.1222,377.8281
L365.3846,382.3529
L372.1719,386.8778
L377.8281,388.0091
L383.4842,388.0091
L391.4027,388.0091
L398.1901,385.7466
L403.8462,382.3529
" stroke="#000000" fill="none" stroke-width="16.14412" />
<path d="M328.0543,378.9593
L328.0543,378.9593
L333.7104,383.4842
L340.4978,385.7466
L349.5475,385.7466
L356.3349,384.6154
L358.5973,380.0905
L358.5973,374.4344
L354.0724,368.7783
L349.5475,365.3846
L345.0226,361.991
L340.4978,358.5973
" stroke="#000000" fill="none" stroke-width="16.14412" />
<path d="M263.5747,325.7919
L263.5747,325.7919
L269.2308,329.1855
L272.6245,335.9729
L274.8869,340.4977
L278.2806,350.6787
L279.4118,356.3349
L280.543,361.991
L280.543,367.6471
L279.4118,376.6968
L276.0181,383.4842
L280.543,378.9593
L285.0679,376.6968
L290.724,373.3032
L300.905,371.0407
L307.6923,369.9095
L309.9548,374.4344
L309.9548,381.2217
L308.8235,388.0091
" stroke="#000000" fill="none" stroke-width="16.14412" />
<path d="M212.6697,375.5656
L212.6697,375.5656
L214.9322,382.3529
L223.9819,385.7466
L229.638,385.7466
L239.819,386.8778
L245.4751,386.8778
L251.1313,384.6154
L257.9185,378.9593
L259.0498,373.3032
L256.7874,367.6471
L250,361.991
L245.4751,358.5973
L239.819,354.0724
" stroke="#000000" fill="none" stroke-width="16.14412" />
<path d="M144.7964,386.8778
L144.7964,386.8778
L148.1901,392.534
L151.5837,398.19
L157.2398,403.8462
L160.6335,408.3711
L158.3711,403.8462
L151.5837,395.9276
L145.9276,386.8778
L144.7964,377.8281
L148.1901,371.0407
L156.1086,366.5158
L164.0271,364.2534
L169.6833,364.2534
L170.8145,371.0407
L173.0769,376.6968
L177.6018,380.0905
L183.2579,378.9593
L187.7828,375.5656
L192.3077,369.9095
L192.3077,361.991
L186.6516,358.5973
L179.8643,357.4661
L173.0769,357.4661
L168.552,359.7285
" stroke="#000000" fill="none" stroke-width="16.14412" />
<path d="M92.76021,382.3529
L92.76021,382.3529
L87.10406,380.0905
L87.10406,373.3032
L91.62896,368.7783
L100.6787,366.5158
L106.3349,365.3846
L116.5159,364.2534
L123.3032,364.2534
L126.6968,371.0407
L126.6968,377.8281
L126.6968,384.6154
" stroke="#000000" fill="none" stroke-width="16.14412" />
<path d="M42.98642,376.6968
L42.98642,376.6968
L42.98642,383.4842
L42.98642,390.2715
L47.51131,393.6652
L54.29864,392.534
L59.95476,388.0091
L63.34841,383.4842
L65.61084,377.8281
L63.34841,372.172
L58.82354,367.6471
L54.29864,363.1222
L56.56109,357.4661
L62.21719,355.2036
L66.74209,349.5475
L67.87331,343.8914
L62.21719,338.2353
L55.42986,333.7104
L48.64254,330.3168
L57.69231,329.1855
L65.61084,329.1855
" stroke="#000000" fill="none" stroke-width="16.14412" />
<path d="M18.09952,320.1358
L18.09952,320.1358
L14.70587,325.7919
L11.31222,331.448
L6.787324,339.3665
L3.39365,349.5475
L1.131225,355.2036
L0,360.8597
L0,366.5158
L0,372.172
L1.131225,377.8281
L3.39365,383.4842
L6.787324,388.0091
L11.31222,392.534
L15.8371,395.9276
" stroke="#000000" fill="none" stroke-width="16.14412" />
<path d="M718.3259,285.0679
L718.3259,285.0679
L722.8507,281.6742
L725.1132,286.1991
L720.5883,288.4615
" stroke="#FF0000" fill="none" stroke-width="16.14412" />
<path d="M699.0952,190.0453
L699.0952,190.0453
L700.2263,183.2579
L704.7512,177.6018
L711.5386,176.4706
L721.7195,176.4706
L731.9006,178.733
L738.6879,183.2579
L740.9503,192.3077
L742.0815,197.9638
L742.0815,204.7512
L739.8191,211.5385
L736.4255,220.5883
L733.0317,228.5068
L729.6381,235.2941
L726.2444,240.9503
L723.982,245.4751
L719.457,252.2625
L717.1946,256.7874
" stroke="#FF0000" fill="none" stroke-width="16.14412" />
<path d="M625.5657,175.3394
L625.5657,175.3394
L631.2218,183.2579
L634.6155,190.0453
L638.0091,197.9638
L640.2715,207.0136
L643.6652,217.1946
L644.7964,227.3755
L645.9277,237.5566
L647.059,246.6064
L647.059,253.3936
L647.059,260.181
L648.1901,252.2625
L650.4526,247.7375
L653.8463,242.0815
L657.24,237.5566
L661.7648,234.1629
L667.4209,233.0317
L676.4706,233.0317
L683.2581,233.0317
L685.5204,237.5566
L685.5204,246.6064
L682.1268,256.7874
L678.7331,262.4435
" stroke="#FF0000" fill="none" stroke-width="16.14412" />
<path d="M589.3666,248.8688
L589.3666,248.8688
L590.4978,254.5249
L595.0227,256.7874
L599.5476,259.0498
L605.2037,259.0498
L610.8598,255.6561
L613.1223,250
L613.1223,242.0815
L610.8598,233.0317
L608.5974,228.5068
L606.3349,223.9819
L600.6788,219.457
" stroke="#FF0000" fill="none" stroke-width="16.14412" />
<path d="M541.8552,247.7375
L541.8552,247.7375
L546.3802,251.1313
L550.905,254.5249
L557.6924,257.9186
L564.4797,259.0498
L569.0046,256.7874
L569.0046,251.1313
L564.4797,244.3439
L559.9548,236.4254
L556.5612,229.638
L554.2987,223.9819
" stroke="#FF0000" fill="none" stroke-width="16.14412" />
<path d="M489.8191,245.4751
L489.8191,245.4751
L489.8191,251.1313
L492.0815,255.6561
L495.4752,260.181
L502.2625,263.5747
L510.1811,263.5747
L516.9684,259.0498
L520.3621,253.3936
L520.3621,246.6064
L516.9684,240.9503
" stroke="#FF0000" fill="none" stroke-width="16.14412" />
<path d="M433.258,180.9955
L433.258,180.9955
L434.3891,175.3394
L437.7828,180.9955
L440.0453,191.1765
L440.0453,197.9638
L440.0453,204.7512
L440.0453,212.6697
L438.9141,221.7195
L436.6516,229.638
L434.3891,238.6878
L430.9955,245.4751
L428.7331,251.1313
L430.9955,257.9186
L441.1765,260.181
L447.9638,261.3123
L454.7512,262.4435
L461.5385,262.4435
L467.1945,261.3123
L472.8507,257.9186
L473.982,252.2625
L471.7195,245.4751
L463.8009,238.6878
L458.1448,235.2941
L451.3575,233.0317
L444.5702,231.9005
" stroke="#FF0000" fill="none" stroke-width="16.14412" />
<path d="M332.5792,233.0317
L332.5792,233.0317
L331.448,226.2444
L335.9729,220.5883
L343.8914,217.1946
L351.81,214.9322
L357.4661,214.9322
L360.8597,219.457
L363.1222,226.2444
L363.1222,235.2941
L363.1222,242.0815
" stroke="#FF0000" fill="none" stroke-width="16.14412" />
<path d="M296.3801,252.2625
L296.3801,252.2625
L298.6425,257.9186
L294.1176,250
L292.9865,244.3439
L290.724,238.6878
L287.3304,231.9005
L285.0679,226.2444
L285.0679,218.3258
L288.4616,212.6697
L296.3801,212.6697
L304.2987,214.9322
L308.8235,217.1946
L313.3484,222.8507
L314.4797,228.5068
" stroke="#FF0000" fill="none" stroke-width="16.14412" />
<path d="M243.2126,230.7692
L243.2126,230.7692
L244.3439,237.5566
L244.3439,243.2127
L243.2126,236.4254
L245.4751,228.5068
L247.7376,221.7195
L253.3937,218.3258
L261.3123,217.1946
L268.0996,220.5883
L272.6245,226.2444
L273.7557,234.1629
L270.362,240.9503
L265.8372,246.6064
" stroke="#FF0000" fill="none" stroke-width="16.14412" />
<path d="M218.3258,171.9457
L218.3258,171.9457
L213.8009,176.4706
L209.276,179.8643
L204.7511,184.3891
L199.095,187.7828
L194.5701,191.1765
L188.914,196.8326
L192.3077,201.3575
L201.3575,202.4887
L210.4073,203.6199
L217.1945,207.0136
L216.0634,212.6697
L211.5385,216.0634
L209.276,220.5883
L210.4073,227.3755
L216.0634,231.9005
L220.5883,236.4254
L223.9819,240.9503
L220.5883,246.6064
L213.8009,250
L203.6199,251.1313
L197.9638,251.1313
L191.1765,251.1313
L190.0453,245.4751
L196.8326,238.6878
L201.3575,236.4254
" stroke="#FF0000" fill="none" stroke-width="16.14412" />
<path d="M144.7964,227.3755
L144.7964,227.3755
L144.7964,221.7195
L143.6652,214.9322
L144.7964,209.276
L149.3213,207.0136
L156.1086,205.8824
L162.8959,207.0136
L169.6833,210.4072
L171.9457,217.1946
L171.9457,227.3755
L168.552,231.9005
L164.0271,238.6878
L158.3711,244.3439
L153.8461,251.1313
L148.1901,256.7874
L143.6652,262.4435
L139.1403,268.0995
L135.7466,272.6245
L131.2217,278.2805
" stroke="#FF0000" fill="none" stroke-width="16.14412" />
<path d="M91.62896,230.7692
L91.62896,230.7692
L92.76021,223.9819
L95.02263,217.1946
L98.41628,211.5385
L102.9412,209.276
L108.5973,209.276
L114.2534,216.0634
L118.7783,225.1131
L118.7783,230.7692
L118.7783,240.9503
L116.5159,246.6064
L114.2534,252.2625
L110.8597,257.9186
L106.3349,263.5747
L102.9412,268.0995
L98.41628,272.6245
L92.76021,276.0181
L88.23528,278.2805
L82.57921,279.4118
L76.92306,279.4118
" stroke="#FF0000" fill="none" stroke-width="16.14412" />
<path d="M39.59274,257.9186
L39.59274,257.9186
L41.85519,263.5747
L44.11766,270.362
L45.24887,278.2805
L47.51131,285.0679
L45.24887,279.4118
L41.85519,273.7557
L38.46154,266.9684
L33.93667,260.181
L28.28052,251.1313
L21.4932,243.2127
L16.9683,234.1629
L12.44345,227.3755
L10.181,220.5883
L10.181,214.9322
L12.44345,205.8824
L16.9683,202.4887
L22.62444,201.3575
L28.28052,201.3575
L33.93667,208.1448
L36.19909,212.6697
L38.46154,222.8507
L39.59274,228.5068
L41.85519,237.5566
L47.51131,244.3439
L52.03619,246.6064
L57.69231,247.7375
L63.34841,247.7375
L71.26698,246.6064
L74.66064,240.9503
L74.66064,234.1629
L72.39819,227.3755
L69.00453,222.8507
L62.21719,218.3258
L57.69231,216.0634
L49.77377,216.0634
L41.85519,217.1946
L37.33032,220.5883
" stroke="#FF0000" fill="none" stroke-width="16.14412" />
<path d="M376.6969,49.77375
L376.6969,49.77375
L376.6969,56.56111
L376.6969,63.34841
L375.5656,70.13573
L371.0407,74.66066
L364.2534,78.05428
L375.5656,78.05428
L382.3529,80.31676
L388.0091,81.44796
L393.6652,83.71041
L398.1901,85.97289
L403.8462,93.8914
L404.9775,104.0724
L404.9775,109.7285
L401.5838,115.3846
L397.0589,119.9095
L390.2715,123.3032
L382.3529,126.6968
L373.3032,128.9593
L363.1222,130.0905
L354.0724,131.2217
L345.0226,132.353
" stroke="#FF0000" fill="none" stroke-width="16.14412" />
<path d="M288.4616,83.71041
L288.4616,83.71041
L289.5928,75.79186
L290.724,66.74207
L295.2489,59.95476
L303.1674,57.69231
L312.2172,58.82352
L317.8733,61.08596
L322.3982,64.47965
L326.9231,69.00453
L330.3168,76.92307
L330.3168,85.97289
L326.9231,91.62897
L319.0045,98.41631
L314.4797,100.6787
" stroke="#FF0000" fill="none" stroke-width="16.14412" />
<path d="M226.2444,29.41177
L226.2444,29.41177
L228.5068,33.93668
L234.1629,37.33029
L242.0815,37.33029
L252.2625,36.19909
L256.7874,32.80542
L263.5747,24.88687
L265.8372,20.362
L268.0996,12.44345
L266.9684,4.524887
L262.4435,1.131225
L253.3937,0
L247.7376,0
L238.6878,1.131225
L231.9005,3.39365
L228.5068,10.18097
L228.5068,18.09955
L228.5068,23.75567
L228.5068,29.41177
L227.3756,36.19909
L227.3756,42.98642
L227.3756,49.77375
L226.2444,56.56111
L225.1132,62.21721
L225.1132,69.00453
L225.1132,74.66066
L225.1132,80.31676
L226.2444,85.97289
L227.3756,91.62897
L228.5068,99.54751
L231.9005,91.62897
L234.1629,85.97289
L235.2941,79.18555
L237.5566,73.52942
L240.9503,67.87334
L245.4751,64.47965
L250,62.21721
L257.9185,62.21721
L263.5747,64.47965
L266.9684,73.52942
L268.0996,79.18555
L269.2308,84.84163
L269.2308,90.49776
L269.2308,96.15385
" stroke="#FF0000" fill="none" stroke-width="16.14412" />
<path d="M157.2398,75.79186
L157.2398,75.79186
L158.3711,69.00453
L161.7647,62.21721
L168.552,57.69231
L176.4706,55.42984
L183.2579,55.42984
L187.7828,58.82352
L191.1765,65.61086
L193.4389,73.52942
L194.5701,80.31676
L191.1765,84.84163
L182.1267,87.10408
L176.4706,87.10408
L169.6833,85.97289
L162.8959,84.84163
L156.1086,82.57919
L149.3213,75.79186
L147.0588,71.26698
L144.7964,65.61086
L144.7964,58.82352
L144.7964,50.90499
L144.7964,44.11763
L148.1901,37.33029
L150.4525,31.67421
L152.7149,26.01808
L156.1086,20.362
L164.0271,13.57466
L168.552,10.18097
L177.6018,6.787324
L183.2579,5.656123
L188.914,4.524887
L195.7014,3.39365
" stroke="#FF0000" fill="none" stroke-width="16.14412" />
<path d="M101.81,74.66066
L101.81,74.66066
L99.54751,80.31676
L98.41628,85.97289
L98.41628,91.62897
L102.9412,98.41631
L109.7285,102.9412
L115.3846,102.9412
L122.172,100.6787
L127.828,93.8914
L130.0905,87.10408
L131.2217,80.31676
L128.9593,74.66066
L124.4344,70.13573
L121.0407,65.61086
" stroke="#FF0000" fill="none" stroke-width="16.14412" />
<path d="M40.72397,7.918572
L40.72397,7.918572
L41.85519,14.70587
L41.85519,20.362
L40.72397,29.41177
L38.46154,35.06789
L37.33032,41.85522
L35.06789,48.64254
L32.80544,56.56111
L31.67419,63.34841
L29.41177,70.13573
L29.41177,75.79186
L29.41177,83.71041
L33.93667,88.23528
L41.85519,92.76018
L47.51131,95.02262
L53.16742,96.15385
L63.34841,97.2851
L69.00453,97.2851
L76.92306,95.02262
L79.18555,90.49776
L81.44798,81.44796
L81.44798,75.79186
L80.31673,66.74207
L76.92306,59.95476
" stroke="#FF0000" fill="none" stroke-width="16.14412" />
</svg>
